# xmcd
#
# Track frame offsets:
#	150
#	12906
#	38379
#	56382
#	76821
#	92505
#	109702
#	125209
#	142803
#	155658
#	169445
#	188164
#	205124
#	218700
#	236043
#
# Disc length: 3206 seconds
#
# Revision: 0
# Processed by: cddbd v1.5.2PL0 Copyright (c) Steve Scherf et al.
# Submitted via: audiograbber 1.83.01
#
DISCID=c10c840f
DTITLE=ZONA B - Original
DYEAR=2003
DGENRE=YU Blues
TTITLE0=Boogie Singer
TTITLE1=Bring It Back To Me
TTITLE2=Voodoo Toy
TTITLE3=Blues Lady
TTITLE4=Playing Bad
TTITLE5=Looking For My Baby
TTITLE6=Dusty Morning
TTITLE7=My Time Is Coming
TTITLE8=Headache Woman
TTITLE9=She Moves So Quick
TTITLE10=Scumlooser
TTITLE11=Leave My Way Alone
TTITLE12=Catfish
TTITLE13=Touch Me
TTITLE14=Drunk Man
EXTD=
EXTT0=
EXTT1=
EXTT2=
EXTT3=
EXTT4=
EXTT5=
EXTT6=
EXTT7=
EXTT8=
EXTT9=
EXTT10=
EXTT11=
EXTT12=
EXTT13=
EXTT14=
PLAYORDER=
